<mxfile host="app.diagrams.net" modified="2023-03-22T20:34:59.333Z" agent="5.0 (Windows NT 10.0; Win64; x64) AppleWebKit/537.36 (KHTML, like Gecko) Chrome/111.0.0.0 Safari/537.36 Edg/111.0.1661.44" etag="o0wEAPFmYUICu6qQFS87" version="21.0.6" type="github">
  <diagram name="Page-1" id="2rehOZDOLB7oGoRyjfem">
    <mxGraphModel dx="3667" dy="2489" grid="1" gridSize="10" guides="1" tooltips="1" connect="1" arrows="1" fold="1" page="1" pageScale="1" pageWidth="850" pageHeight="1100" math="0" shadow="0">
      <root>
        <mxCell id="0" />
        <mxCell id="1" parent="0" />
        <mxCell id="cWXUJNvMqhTuxY0X6Ky5-93" value="" style="rounded=0;whiteSpace=wrap;html=1;dashed=1;dashPattern=12 12;fontSize=15;" parent="1" vertex="1">
          <mxGeometry x="30" y="-130" width="1640" height="1200" as="geometry" />
        </mxCell>
        <mxCell id="cWXUJNvMqhTuxY0X6Ky5-92" value="" style="rounded=0;whiteSpace=wrap;html=1;fontSize=15;dashed=1;dashPattern=12 12;" parent="1" vertex="1">
          <mxGeometry x="60" y="740" width="510" height="290" as="geometry" />
        </mxCell>
        <mxCell id="k68854BvRvZbGaNbNRbs-1" value="&lt;font style=&quot;font-size: 15px;&quot;&gt;&lt;b&gt;&amp;nbsp;Customer&#39;s environment&lt;/b&gt;&lt;/font&gt;" style="rounded=0;whiteSpace=wrap;html=1;dashed=1;horizontal=1;verticalAlign=top;align=left;fillColor=#f5f5f5;strokeColor=#666666;fontColor=#333333;" parent="1" vertex="1">
          <mxGeometry x="60" y="70" width="610" height="630" as="geometry" />
        </mxCell>
        <mxCell id="k68854BvRvZbGaNbNRbs-8" style="edgeStyle=orthogonalEdgeStyle;rounded=0;orthogonalLoop=1;jettySize=auto;html=1;entryX=0.5;entryY=0;entryDx=0;entryDy=0;fillColor=#f8cecc;strokeColor=#000000;startArrow=classic;startFill=1;" parent="1" source="k68854BvRvZbGaNbNRbs-2" target="k68854BvRvZbGaNbNRbs-6" edge="1">
          <mxGeometry relative="1" as="geometry" />
        </mxCell>
        <mxCell id="k68854BvRvZbGaNbNRbs-2" value="&lt;b&gt;EMR&lt;br&gt;&lt;/b&gt;Electronic Medical Record System&lt;br&gt;Patient Data" style="rounded=0;whiteSpace=wrap;html=1;" parent="1" vertex="1">
          <mxGeometry x="107.5" y="130" width="205" height="60" as="geometry" />
        </mxCell>
        <mxCell id="k68854BvRvZbGaNbNRbs-5" style="edgeStyle=orthogonalEdgeStyle;rounded=0;orthogonalLoop=1;jettySize=auto;html=1;fillColor=#f8cecc;strokeColor=#000000;entryX=0.5;entryY=1;entryDx=0;entryDy=0;" parent="1" source="k68854BvRvZbGaNbNRbs-3" target="k68854BvRvZbGaNbNRbs-4" edge="1">
          <mxGeometry relative="1" as="geometry">
            <Array as="points" />
          </mxGeometry>
        </mxCell>
        <mxCell id="k68854BvRvZbGaNbNRbs-3" value="&lt;b&gt;Devices&lt;br&gt;&lt;/b&gt;Vital Signs Monitors" style="rounded=0;whiteSpace=wrap;html=1;" parent="1" vertex="1">
          <mxGeometry x="107.5" y="620" width="205" height="60" as="geometry" />
        </mxCell>
        <mxCell id="cWXUJNvMqhTuxY0X6Ky5-71" style="edgeStyle=orthogonalEdgeStyle;rounded=0;orthogonalLoop=1;jettySize=auto;html=1;entryX=0.5;entryY=1;entryDx=0;entryDy=0;strokeColor=#000000;startArrow=none;startFill=0;endArrow=classic;endFill=1;" parent="1" source="k68854BvRvZbGaNbNRbs-4" target="k68854BvRvZbGaNbNRbs-6" edge="1">
          <mxGeometry relative="1" as="geometry" />
        </mxCell>
        <mxCell id="k68854BvRvZbGaNbNRbs-4" value="PICCX&lt;br&gt;Capsule" style="shape=hexagon;perimeter=hexagonPerimeter2;whiteSpace=wrap;html=1;fixedSize=1;fillColor=#dae8fc;strokeColor=#6c8ebf;" parent="1" vertex="1">
          <mxGeometry x="160" y="480" width="100" height="60" as="geometry" />
        </mxCell>
        <mxCell id="k68854BvRvZbGaNbNRbs-10" style="edgeStyle=orthogonalEdgeStyle;rounded=0;orthogonalLoop=1;jettySize=auto;html=1;entryX=0;entryY=0.5;entryDx=0;entryDy=0;fontSize=15;startArrow=none;" parent="1" source="k68854BvRvZbGaNbNRbs-11" target="k68854BvRvZbGaNbNRbs-9" edge="1">
          <mxGeometry relative="1" as="geometry" />
        </mxCell>
        <mxCell id="k68854BvRvZbGaNbNRbs-6" value="&lt;b&gt;IBE&lt;/b&gt;&lt;br&gt;Intellibridge Enterprise&lt;br&gt;Converts data into HL7 v2 Messages" style="rounded=0;whiteSpace=wrap;html=1;fillColor=#dae8fc;strokeColor=#6c8ebf;" parent="1" vertex="1">
          <mxGeometry x="105" y="300" width="210" height="90" as="geometry" />
        </mxCell>
        <mxCell id="k68854BvRvZbGaNbNRbs-9" value="&lt;b&gt;TIE IPaaS&lt;/b&gt;&lt;br&gt;Customer&#39;s Integration Broker" style="rounded=0;whiteSpace=wrap;html=1;fillColor=#d0cee2;strokeColor=#56517e;" parent="1" vertex="1">
          <mxGeometry x="425" y="300" width="210" height="90" as="geometry" />
        </mxCell>
        <mxCell id="k68854BvRvZbGaNbNRbs-12" value="" style="edgeStyle=orthogonalEdgeStyle;rounded=0;orthogonalLoop=1;jettySize=auto;html=1;entryX=0;entryY=0.5;entryDx=0;entryDy=0;fontSize=15;endArrow=none;startArrow=classic;startFill=1;" parent="1" source="k68854BvRvZbGaNbNRbs-6" target="k68854BvRvZbGaNbNRbs-11" edge="1">
          <mxGeometry relative="1" as="geometry">
            <mxPoint x="315" y="345" as="sourcePoint" />
            <mxPoint x="425" y="345" as="targetPoint" />
          </mxGeometry>
        </mxCell>
        <mxCell id="k68854BvRvZbGaNbNRbs-11" value="&lt;font style=&quot;font-size: 10px;&quot;&gt;&lt;b&gt;MLLP HL7&lt;/b&gt;&lt;/font&gt;" style="text;html=1;strokeColor=none;fillColor=none;align=center;verticalAlign=middle;whiteSpace=wrap;rounded=0;fontSize=15;" parent="1" vertex="1">
          <mxGeometry x="340" y="330" width="60" height="30" as="geometry" />
        </mxCell>
        <mxCell id="k68854BvRvZbGaNbNRbs-17" value="" style="group;fillColor=#dae8fc;strokeColor=#6c8ebf;" parent="1" vertex="1" connectable="0">
          <mxGeometry x="770" y="69" width="850" height="631" as="geometry" />
        </mxCell>
        <mxCell id="k68854BvRvZbGaNbNRbs-13" value="&lt;b&gt;&lt;font style=&quot;font-size: 15px;&quot;&gt;&amp;nbsp;HSDP Environment&lt;/font&gt;&lt;/b&gt;" style="rounded=0;whiteSpace=wrap;html=1;dashed=1;horizontal=1;verticalAlign=top;align=left;" parent="k68854BvRvZbGaNbNRbs-17" vertex="1">
          <mxGeometry y="1" width="850" height="630" as="geometry" />
        </mxCell>
        <mxCell id="k68854BvRvZbGaNbNRbs-15" value="&lt;font style=&quot;font-size: 15px;&quot;&gt;&lt;b&gt;Firewall&lt;/b&gt;&lt;/font&gt;" style="rounded=0;whiteSpace=wrap;html=1;fontSize=10;horizontal=0;fillColor=#fff2cc;strokeColor=#d6b656;" parent="k68854BvRvZbGaNbNRbs-17" vertex="1">
          <mxGeometry y="50" width="36.170212765957444" height="580" as="geometry" />
        </mxCell>
        <mxCell id="k68854BvRvZbGaNbNRbs-16" value="&lt;font style=&quot;font-size: 15px;&quot;&gt;&lt;b&gt;Firewall&lt;/b&gt;&lt;/font&gt;" style="rounded=0;whiteSpace=wrap;html=1;fontSize=10;horizontal=1;fillColor=#fff2cc;strokeColor=#d6b656;" parent="k68854BvRvZbGaNbNRbs-17" vertex="1">
          <mxGeometry x="162.76595744680853" width="687.2340425531916" height="30" as="geometry" />
        </mxCell>
        <mxCell id="k68854BvRvZbGaNbNRbs-14" value="&lt;b&gt;TIE Cloud&lt;/b&gt;&lt;br&gt;Philips&#39; Integration Broker" style="rounded=0;whiteSpace=wrap;html=1;fillColor=#dae8fc;strokeColor=#6c8ebf;" parent="k68854BvRvZbGaNbNRbs-17" vertex="1">
          <mxGeometry x="99.46808510638299" y="231" width="163.2090425531915" height="90" as="geometry" />
        </mxCell>
        <mxCell id="k68854BvRvZbGaNbNRbs-28" value="" style="rounded=0;whiteSpace=wrap;html=1;fontSize=15;fontColor=#000000;dashed=1;strokeColor=#FF8000;" parent="k68854BvRvZbGaNbNRbs-17" vertex="1">
          <mxGeometry x="352.6595744680851" y="61" width="343.6170212765958" height="178" as="geometry" />
        </mxCell>
        <mxCell id="k68854BvRvZbGaNbNRbs-31" style="edgeStyle=orthogonalEdgeStyle;rounded=0;orthogonalLoop=1;jettySize=auto;html=1;entryX=1;entryY=0.5;entryDx=0;entryDy=0;fontSize=15;fontColor=#000000;" parent="k68854BvRvZbGaNbNRbs-17" source="k68854BvRvZbGaNbNRbs-29" target="k68854BvRvZbGaNbNRbs-30" edge="1">
          <mxGeometry relative="1" as="geometry" />
        </mxCell>
        <mxCell id="k68854BvRvZbGaNbNRbs-29" value="&lt;b&gt;VAC&lt;/b&gt;" style="rounded=0;whiteSpace=wrap;html=1;fontSize=15;fillColor=#fad7ac;strokeColor=#b46504;" parent="k68854BvRvZbGaNbNRbs-17" vertex="1">
          <mxGeometry x="560.6382978723404" y="105.5" width="117.55319148936171" height="89" as="geometry" />
        </mxCell>
        <mxCell id="k68854BvRvZbGaNbNRbs-30" value="Patient Data&lt;br&gt;Calc Results" style="shape=datastore;whiteSpace=wrap;html=1;fontSize=15;fillColor=#ffe6cc;strokeColor=#d79b00;" parent="k68854BvRvZbGaNbNRbs-17" vertex="1">
          <mxGeometry x="379.7872340425532" y="92.75" width="99.46808510638299" height="114.5" as="geometry" />
        </mxCell>
        <mxCell id="k68854BvRvZbGaNbNRbs-32" value="&lt;b&gt;JDBC&lt;/b&gt;" style="text;html=1;strokeColor=none;fillColor=none;align=center;verticalAlign=middle;whiteSpace=wrap;rounded=0;fontSize=15;fontColor=#000000;" parent="k68854BvRvZbGaNbNRbs-17" vertex="1">
          <mxGeometry x="497.3404255319149" y="121" width="54.255319148936174" height="30" as="geometry" />
        </mxCell>
        <mxCell id="k68854BvRvZbGaNbNRbs-33" value="" style="rounded=0;whiteSpace=wrap;html=1;fontSize=15;fontColor=#000000;dashed=1;strokeColor=#009900;" parent="k68854BvRvZbGaNbNRbs-17" vertex="1">
          <mxGeometry x="352.66" y="431" width="337.34" height="178" as="geometry" />
        </mxCell>
        <mxCell id="eL5gJCXLeCchbwgY8hE5-12" style="edgeStyle=orthogonalEdgeStyle;rounded=0;orthogonalLoop=1;jettySize=auto;html=1;exitX=1;exitY=0.5;exitDx=0;exitDy=0;" parent="k68854BvRvZbGaNbNRbs-17" source="k68854BvRvZbGaNbNRbs-34" target="eL5gJCXLeCchbwgY8hE5-9" edge="1">
          <mxGeometry relative="1" as="geometry" />
        </mxCell>
        <mxCell id="k68854BvRvZbGaNbNRbs-34" value="&lt;b&gt;CDS-B&lt;/b&gt;" style="rounded=0;whiteSpace=wrap;html=1;fontSize=15;fillColor=#d5e8d4;strokeColor=#82b366;" parent="k68854BvRvZbGaNbNRbs-17" vertex="1">
          <mxGeometry x="411.4374468085107" y="481" width="117.55319148936171" height="89" as="geometry" />
        </mxCell>
        <mxCell id="k68854BvRvZbGaNbNRbs-35" style="edgeStyle=orthogonalEdgeStyle;rounded=0;orthogonalLoop=1;jettySize=auto;html=1;entryX=0;entryY=0.5;entryDx=0;entryDy=0;fontSize=15;fontColor=#000000;startArrow=classic;startFill=1;exitX=0.75;exitY=1;exitDx=0;exitDy=0;strokeColor=#000000;" parent="k68854BvRvZbGaNbNRbs-17" source="k68854BvRvZbGaNbNRbs-14" target="k68854BvRvZbGaNbNRbs-34" edge="1">
          <mxGeometry relative="1" as="geometry">
            <Array as="points">
              <mxPoint x="222" y="526" />
            </Array>
            <mxPoint x="222.6800000000003" y="455.5" as="sourcePoint" />
          </mxGeometry>
        </mxCell>
        <mxCell id="k68854BvRvZbGaNbNRbs-37" style="edgeStyle=orthogonalEdgeStyle;rounded=0;orthogonalLoop=1;jettySize=auto;html=1;exitX=1;exitY=0.5;exitDx=0;exitDy=0;entryX=0;entryY=0.5;entryDx=0;entryDy=0;fontSize=15;fontColor=#000000;startArrow=blockThin;startFill=1;" parent="k68854BvRvZbGaNbNRbs-17" source="k68854BvRvZbGaNbNRbs-36" target="k68854BvRvZbGaNbNRbs-30" edge="1">
          <mxGeometry relative="1" as="geometry" />
        </mxCell>
        <mxCell id="k68854BvRvZbGaNbNRbs-38" style="edgeStyle=orthogonalEdgeStyle;rounded=0;orthogonalLoop=1;jettySize=auto;html=1;entryX=0.5;entryY=0;entryDx=0;entryDy=0;fontSize=15;fontColor=#000000;startArrow=blockThin;startFill=1;" parent="k68854BvRvZbGaNbNRbs-17" source="k68854BvRvZbGaNbNRbs-36" target="k68854BvRvZbGaNbNRbs-14" edge="1">
          <mxGeometry relative="1" as="geometry" />
        </mxCell>
        <mxCell id="k68854BvRvZbGaNbNRbs-36" value="Tasy Interfaces" style="shape=hexagon;perimeter=hexagonPerimeter2;whiteSpace=wrap;html=1;fixedSize=1;fontSize=15;fillColor=#dae8fc;strokeColor=#6c8ebf;" parent="k68854BvRvZbGaNbNRbs-17" vertex="1">
          <mxGeometry x="126.81276595744681" y="110" width="108.51063829787235" height="80" as="geometry" />
        </mxCell>
        <mxCell id="eL5gJCXLeCchbwgY8hE5-10" value="" style="group" parent="k68854BvRvZbGaNbNRbs-17" vertex="1" connectable="0">
          <mxGeometry x="585.9100000000001" y="470" width="67" height="90" as="geometry" />
        </mxCell>
        <mxCell id="eL5gJCXLeCchbwgY8hE5-6" value="" style="aspect=fixed;html=1;points=[];align=center;image;fontSize=12;image=img/lib/azure2/general/File.svg;fillColor=#3333FF;" parent="eL5gJCXLeCchbwgY8hE5-10" vertex="1">
          <mxGeometry x="11" width="56.00000000000001" height="69" as="geometry" />
        </mxCell>
        <mxCell id="eL5gJCXLeCchbwgY8hE5-7" value="" style="aspect=fixed;html=1;points=[];align=center;image;fontSize=12;image=img/lib/azure2/general/File.svg;fillColor=#3333FF;" parent="eL5gJCXLeCchbwgY8hE5-10" vertex="1">
          <mxGeometry x="6" y="10" width="56.00000000000001" height="69" as="geometry" />
        </mxCell>
        <mxCell id="eL5gJCXLeCchbwgY8hE5-9" value="Serialized files" style="aspect=fixed;html=1;points=[];align=center;image;fontSize=12;image=img/lib/azure2/general/File.svg;fillColor=#3333FF;" parent="eL5gJCXLeCchbwgY8hE5-10" vertex="1">
          <mxGeometry y="21" width="56.00000000000001" height="69" as="geometry" />
        </mxCell>
        <mxCell id="cWXUJNvMqhTuxY0X6Ky5-38" value="&lt;b&gt;HTTP&lt;/b&gt;" style="text;html=1;strokeColor=none;fillColor=none;align=center;verticalAlign=middle;whiteSpace=wrap;rounded=0;" parent="k68854BvRvZbGaNbNRbs-17" vertex="1">
          <mxGeometry x="220" y="414.5" width="60" height="30" as="geometry" />
        </mxCell>
        <mxCell id="cWXUJNvMqhTuxY0X6Ky5-39" value="&lt;b&gt;HTTP&lt;/b&gt;" style="text;html=1;strokeColor=none;fillColor=none;align=center;verticalAlign=middle;whiteSpace=wrap;rounded=0;" parent="k68854BvRvZbGaNbNRbs-17" vertex="1">
          <mxGeometry x="120" y="194.5" width="60" height="30" as="geometry" />
        </mxCell>
        <mxCell id="cWXUJNvMqhTuxY0X6Ky5-41" value="&lt;b&gt;JDBC&lt;/b&gt;" style="text;html=1;strokeColor=none;fillColor=none;align=center;verticalAlign=middle;whiteSpace=wrap;rounded=0;fontSize=15;fontColor=#000000;" parent="k68854BvRvZbGaNbNRbs-17" vertex="1">
          <mxGeometry x="280.0004255319149" y="121" width="54.255319148936174" height="30" as="geometry" />
        </mxCell>
        <mxCell id="k68854BvRvZbGaNbNRbs-18" style="edgeStyle=orthogonalEdgeStyle;rounded=0;orthogonalLoop=1;jettySize=auto;html=1;entryX=0;entryY=0.5;entryDx=0;entryDy=0;fontSize=15;fontColor=#000000;startArrow=classic;startFill=1;" parent="1" source="k68854BvRvZbGaNbNRbs-9" target="k68854BvRvZbGaNbNRbs-14" edge="1">
          <mxGeometry relative="1" as="geometry" />
        </mxCell>
        <mxCell id="k68854BvRvZbGaNbNRbs-19" value="&lt;b&gt;HL7 v2&lt;/b&gt;" style="text;html=1;strokeColor=none;fillColor=none;align=center;verticalAlign=middle;whiteSpace=wrap;rounded=0;fontSize=15;fontColor=#000000;" parent="1" vertex="1">
          <mxGeometry x="687" y="310" width="60" height="30" as="geometry" />
        </mxCell>
        <mxCell id="k68854BvRvZbGaNbNRbs-22" value="&lt;b&gt;HTTPS&lt;/b&gt;" style="text;html=1;strokeColor=none;fillColor=none;align=center;verticalAlign=middle;whiteSpace=wrap;rounded=0;fontSize=15;fontColor=#000000;" parent="1" vertex="1">
          <mxGeometry x="689" y="350" width="60" height="30" as="geometry" />
        </mxCell>
        <mxCell id="k68854BvRvZbGaNbNRbs-40" style="edgeStyle=orthogonalEdgeStyle;rounded=0;orthogonalLoop=1;jettySize=auto;html=1;entryX=0.5;entryY=0;entryDx=0;entryDy=0;fontSize=15;fontColor=#000000;startArrow=blockThin;startFill=1;" parent="1" target="k68854BvRvZbGaNbNRbs-29" edge="1">
          <mxGeometry relative="1" as="geometry">
            <mxPoint x="1389" y="-10" as="sourcePoint" />
          </mxGeometry>
        </mxCell>
        <mxCell id="k68854BvRvZbGaNbNRbs-39" value="&lt;b&gt;Command Center User&lt;/b&gt;" style="verticalLabelPosition=bottom;sketch=0;html=1;fillColor=#3333FF;strokeColor=none;verticalAlign=top;pointerEvents=1;align=center;shape=mxgraph.cisco_safe.people_places_things_icons.icon2;fontSize=15;fontColor=#000000;" parent="1" vertex="1">
          <mxGeometry x="1340" y="-110" width="90" height="71" as="geometry" />
        </mxCell>
        <mxCell id="k68854BvRvZbGaNbNRbs-41" value="&lt;b&gt;HTTPS&lt;/b&gt;" style="text;html=1;strokeColor=none;fillColor=none;align=center;verticalAlign=middle;whiteSpace=wrap;rounded=0;fontSize=15;fontColor=#000000;" parent="1" vertex="1">
          <mxGeometry x="1400" y="30" width="60" height="30" as="geometry" />
        </mxCell>
        <mxCell id="cWXUJNvMqhTuxY0X6Ky5-2" style="edgeStyle=orthogonalEdgeStyle;rounded=0;orthogonalLoop=1;jettySize=auto;html=1;entryX=0.25;entryY=1;entryDx=0;entryDy=0;startArrow=classic;startFill=1;" parent="1" source="cWXUJNvMqhTuxY0X6Ky5-1" target="k68854BvRvZbGaNbNRbs-14" edge="1">
          <mxGeometry relative="1" as="geometry" />
        </mxCell>
        <mxCell id="cWXUJNvMqhTuxY0X6Ky5-1" value="&lt;b&gt;Caregility Camera&lt;/b&gt;" style="rounded=0;whiteSpace=wrap;html=1;" parent="1" vertex="1">
          <mxGeometry x="360" y="620" width="205" height="60" as="geometry" />
        </mxCell>
        <mxCell id="cWXUJNvMqhTuxY0X6Ky5-4" value="&lt;b&gt;HTTPS&lt;/b&gt;" style="text;html=1;strokeColor=none;fillColor=none;align=center;verticalAlign=middle;whiteSpace=wrap;rounded=0;fontSize=15;fontColor=#000000;" parent="1" vertex="1">
          <mxGeometry x="689" y="620" width="60" height="30" as="geometry" />
        </mxCell>
        <mxCell id="cWXUJNvMqhTuxY0X6Ky5-75" value="&lt;font style=&quot;font-size: 20px;&quot;&gt;&lt;b&gt;Legend&lt;/b&gt;&lt;/font&gt;" style="text;html=1;strokeColor=none;fillColor=none;align=center;verticalAlign=middle;whiteSpace=wrap;rounded=0;" parent="1" vertex="1">
          <mxGeometry x="72" y="740" width="60" height="30" as="geometry" />
        </mxCell>
        <mxCell id="cWXUJNvMqhTuxY0X6Ky5-76" value="" style="rounded=0;whiteSpace=wrap;html=1;fillColor=#d0cee2;strokeColor=#56517e;" parent="1" vertex="1">
          <mxGeometry x="67" y="785" width="40" height="30" as="geometry" />
        </mxCell>
        <mxCell id="cWXUJNvMqhTuxY0X6Ky5-77" value="&lt;font style=&quot;font-size: 15px;&quot;&gt;Applications under discussion to confirm if stay in the architecture&lt;/font&gt;" style="text;html=1;strokeColor=none;fillColor=none;align=center;verticalAlign=middle;whiteSpace=wrap;rounded=0;fontSize=20;" parent="1" vertex="1">
          <mxGeometry x="120" y="785" width="440" height="30" as="geometry" />
        </mxCell>
        <mxCell id="cWXUJNvMqhTuxY0X6Ky5-80" value="" style="rounded=0;whiteSpace=wrap;html=1;fillColor=#dae8fc;strokeColor=#6c8ebf;" parent="1" vertex="1">
          <mxGeometry x="67" y="833" width="40" height="30" as="geometry" />
        </mxCell>
        <mxCell id="cWXUJNvMqhTuxY0X6Ky5-81" value="&lt;font style=&quot;font-size: 15px;&quot;&gt;Applications confirmed in the architecture&lt;/font&gt;" style="text;html=1;strokeColor=none;fillColor=none;align=left;verticalAlign=middle;whiteSpace=wrap;rounded=0;fontSize=20;" parent="1" vertex="1">
          <mxGeometry x="120" y="833" width="418" height="30" as="geometry" />
        </mxCell>
        <mxCell id="cWXUJNvMqhTuxY0X6Ky5-83" value="" style="rounded=0;whiteSpace=wrap;html=1;fillColor=#d5e8d4;strokeColor=#82b366;" parent="1" vertex="1">
          <mxGeometry x="67.5" y="880" width="40" height="30" as="geometry" />
        </mxCell>
        <mxCell id="cWXUJNvMqhTuxY0X6Ky5-84" value="&lt;font style=&quot;font-size: 15px;&quot;&gt;CDS-B domain&lt;/font&gt;" style="text;html=1;strokeColor=none;fillColor=none;align=left;verticalAlign=middle;whiteSpace=wrap;rounded=0;fontSize=20;" parent="1" vertex="1">
          <mxGeometry x="120" y="880" width="418" height="30" as="geometry" />
        </mxCell>
        <mxCell id="cWXUJNvMqhTuxY0X6Ky5-85" value="" style="rounded=0;whiteSpace=wrap;html=1;fillColor=#ffe6cc;strokeColor=#d79b00;" parent="1" vertex="1">
          <mxGeometry x="67.5" y="930" width="40" height="30" as="geometry" />
        </mxCell>
        <mxCell id="cWXUJNvMqhTuxY0X6Ky5-86" value="&lt;font style=&quot;font-size: 15px;&quot;&gt;VAC domain&lt;/font&gt;" style="text;html=1;strokeColor=none;fillColor=none;align=left;verticalAlign=middle;whiteSpace=wrap;rounded=0;fontSize=20;" parent="1" vertex="1">
          <mxGeometry x="120" y="930" width="418" height="30" as="geometry" />
        </mxCell>
        <mxCell id="cWXUJNvMqhTuxY0X6Ky5-88" value="" style="rounded=0;whiteSpace=wrap;html=1;" parent="1" vertex="1">
          <mxGeometry x="67.5" y="980" width="40" height="30" as="geometry" />
        </mxCell>
        <mxCell id="cWXUJNvMqhTuxY0X6Ky5-89" value="&lt;font style=&quot;font-size: 15px;&quot;&gt;External systems&lt;/font&gt;" style="text;html=1;strokeColor=none;fillColor=none;align=left;verticalAlign=middle;whiteSpace=wrap;rounded=0;fontSize=20;" parent="1" vertex="1">
          <mxGeometry x="120" y="980" width="418" height="30" as="geometry" />
        </mxCell>
      </root>
    </mxGraphModel>
  </diagram>
</mxfile>
